<svg xmlns="http://www.w3.org/2000/svg" width="278" height="278" viewBox="0 0 278 278">
  <g fill="none" fill-rule="evenodd" transform="translate(-1 -1)">
    <mask id="a" fill="#fff">
      <path d="M0 0h280v280H0z"/>
    </mask>
    <g mask="url(#a)">
      <path fill="#D6D6D6" d="M278.4 140a138.4 138.4 0 11-276.8 0 138.4 138.4 0 01276.8 0"/>
      <text fill="#333" font-family="HelveticaforTarget-Bold, Helvetica for Target" font-size="16.6" font-weight="bold" transform="translate(1.6 1.6)">
        <tspan x="124.6" y="144.3">300</tspan>
      </text>
      <path fill="#FFF" d="M186 53.6l-15.3-10-15.4 10-15.3-10-15.3 10-15.4-10-15.3 10-15.4-10v192.8l15.4-10 15.3 10 15.4-10 15.3 10 15.3-10 15.4 10 15.3-10 15.4 10V43.6z"/>
      <path fill="#C00" d="M154.6 101.7a16.4 16.4 0 01-29.2 0 16.3 16.3 0 01-1.8-7.3 16.4 16.4 0 1131 7.3M140 70a24.5 24.5 0 1022 35.5 24.5 24.5 0 002.5-11c0-13.5-11-24.5-24.5-24.5"/>
      <path fill="#C00" d="M140 86.2a8.2 8.2 0 108.2 8.2 8.2 8.2 0 00-8.2-8.2"/>
      <path fill="#0A0300" d="M101 140.9c.5 0 .6.1.6.7V184c0 .6-.1.8-.6.8h-6c-.5 0-.6-.3-.6-1v-21-20.8c0-.8.2-1 .8-1h5.8zm43.2 0c1.1 0 1.4.2 1.4 1v41.8c0 .8-.3 1-1.4 1h-7.3c-1.2 0-1.5-.2-1.5-1V146v-4.5c0-.5.2-.7 1-.7h7.8zm-14 .7v42.1c0 .8-.1 1-.7 1a20.6 20.6 0 00-2.7 0c-.5 0-.6-.2-.6-1v-21-20.8c0-.8.1-1 .7-1h2.8c.5 0 .6.2.6.7zm-19.4.3v41.8c0 .8-.1 1-.8 1a14.2 14.2 0 00-2.5 0c-.7 0-.8-.3-.8-1v-21V142c0-.8.1-1 .7-1h2.7c.6 0 .7.3.7 1zm10.2 20.9v20.8c0 1-.2 1.2-1.1 1h-3.2c-.6.1-.8-.1-.7-.7v-.4V142c0-1 .2-1.3 1.2-1.2h2.9c.8 0 1 .2 1 1v20.9zm46.1.1v20.7c0 1-.2 1.1-1 1.1h-5.3c-.6 0-.8 0-.8-.8v-42.3c0-.6.2-.7.7-.7h5.6c.7 0 .8.2.8.9v21.1zm-12.3-.1v20.8c0 1-.2 1.2-.9 1h-2.5c-.5.1-.7-.1-.6-.7v-.4V142c0-1 .2-1.3 1-1.2a12.2 12.2 0 002.3 0c.6 0 .7.2.7 1v20.9zm21.5 0v20.8c0 1-.2 1.2-.9 1H173c-.5.1-.7-.1-.6-.7v-.4V142c0-1 .2-1.3 1-1.2a12.2 12.2 0 002.3 0c.6 0 .8.2.8 1v20.9zm9.3 0v20.8c0 1-.2 1.2-1 1h-2.5c-.5.1-.7-.1-.6-.7v-.4V142c0-1 .2-1.3 1-1.2a12.2 12.2 0 002.3 0c.7 0 .8.2.8 1v20.9zM52.4 145.4v-23c0-5.5 5.4-10.6 11-10.7H89c.8 0 1 .2 1 1a107.2 107.2 0 000 5.7c0 .8-.2 1-1 1H64.2c-2.7.1-4.3 1.7-4.3 4.4v21.5c0 .8-.1 1.1-1 1a91.3 91.3 0 00-5.7 0c-.7.1-.9-.2-.8-.9zm36.5 61c.8 0 1 .2 1 1a86.4 86.4 0 000 5.5c0 .8-.2 1-1 1H66.8c-2.2-.1-4.5.2-6.7-.6a11.2 11.2 0 01-7.7-10.7v-22c0-1.1.1-1.5 1.2-1.4h5c1 0 1.3.2 1.3 1.3V201c0 4.2 1.2 5.4 5.4 5.4h23.6zm109.6-86.9h-7c-.9 0-1.1-.2-1-1v-5.8c-.1-.8.1-1 1-1H213c1.8.2 3.7-.2 5.6.2 5 1.2 9 5.8 9 11v22.4c0 1.2-.4 1.4-1.4 1.3h-4.8c-1.1.1-1.5-.2-1.5-1.4V124c0-3-1.4-4.4-4.4-4.4h-17.1zm29.2 60.6v23.4c-.1 5.5-5 10.3-10.4 10.4h-25c-.7 0-1-.2-1-1v-5.5c0-.8.3-1 1-1H216c3 0 4.4-1.4 4.4-4.4v-15.2-6.7c0-.7.2-1 .9-.9a99.5 99.5 0 005.6 0c.7 0 .9.2.9 1z"/>
    </g>
  </g>
</svg>